<svg width="20" height="16" viewBox="0 0 20 16" fill="none" xmlns="http://www.w3.org/2000/svg">
<path fill-rule="evenodd" clip-rule="evenodd" d="M10.5757 3.76422C10.2533 4.07365 9.74414 4.07365 9.4217 3.76422L8.8447 3.2105C8.16934 2.56239 7.25698 2.16667 6.2487 2.16667C4.17763 2.16667 2.4987 3.8456 2.4987 5.91667C2.4987 7.90219 3.57352 9.54171 5.12516 10.8888C6.67813 12.237 8.53486 13.1312 9.64424 13.5876C9.87619 13.683 10.1212 13.683 10.3532 13.5876C11.4625 13.1312 13.3193 12.237 14.8722 10.8888C16.4239 9.54171 17.4987 7.90218 17.4987 5.91667C17.4987 3.8456 15.8198 2.16667 13.7487 2.16667C12.7404 2.16667 11.8281 2.56239 11.1527 3.2105L10.5757 3.76422ZM9.9987 2.00798C9.02545 1.074 7.70411 0.5 6.2487 0.5C3.25716 0.5 0.832031 2.92512 0.832031 5.91667C0.832031 11.2235 6.64065 14.1542 9.01019 15.1289C9.64834 15.3914 10.3491 15.3914 10.9872 15.1289C13.3567 14.1542 19.1654 11.2235 19.1654 5.91667C19.1654 2.92512 16.7402 0.5 13.7487 0.5C12.2933 0.5 10.9719 1.074 9.9987 2.00798Z" fill="#6C7275"/>
</svg>
